<?xml version="1.0" encoding="utf-8"?>
<!-- Generator: Adobe Illustrator 16.0.0, SVG Export Plug-In . SVG Version: 6.00 Build 0)  -->
<!DOCTYPE svg PUBLIC "-//W3C//DTD SVG 1.1//EN" "http://www.w3.org/Graphics/SVG/1.1/DTD/svg11.dtd">
<svg version="1.1"
	 id="svg2" xmlns:svg="http://www.w3.org/2000/svg" xmlns:rdf="http://www.w3.org/1999/02/22-rdf-syntax-ns#" xmlns:dc="http://purl.org/dc/elements/1.1/" xmlns:cc="http://creativecommons.org/ns#"
	 xmlns="http://www.w3.org/2000/svg" xmlns:xlink="http://www.w3.org/1999/xlink" x="0px" y="0px" width="543px" height="543px"
	 viewBox="26.138 138.114 543 543" enable-background="new 26.138 138.114 543 543" xml:space="preserve">
<g>
	<path fill="#0083D6" d="M383.647,153.928c3.506,1.283,5.619,4.178,5.395,8.374c-0.173,3.256-0.861,6.513-1.61,9.702
		c-0.292,1.238-1.157,2.576-2.148,3.389c-7.931,6.508-15.96,12.896-23.959,19.329c-4.963,3.995-9.927,7.992-15.421,12.424
		c2.214,1.053,3.872,1.718,5.405,2.603c1.699,0.984,2.942,0.766,4.497-0.537c5.932-4.941,11.996-9.719,18.023-14.542
		c3.24-2.594,6.496-5.157,10.307-8.181c-0.168,1.271-0.201,1.708-0.292,2.137c-1.805,8.842-3.753,17.658-5.335,26.54
		c-0.391,2.197-0.002,4.758,0.76,6.878c1.311,3.633,5.368,5.496,8.944,4.662c4.407-1.031,9.414-6.751,9.339-11.433
		c-0.898,0.972-1.473,1.539-1.99,2.154c-2.011,2.386-4.327,3.964-7.607,2.899c-3.367-1.096-5.354-3.68-5.353-7.452
		c0.004-2.521,0.243-5.093,0.778-7.558c2.605-11.952,5.518-23.841,7.947-35.826c0.987-4.835,1.629-9.896,1.357-14.792
		c-0.346-6.343-6.076-9.023-11.758-6.116c-3.563,1.827-6.02,4.756-7.971,8.163c-0.196,0.334-0.094,0.839-0.209,2.138
		c1.125-0.946,1.736-1.349,2.209-1.878C377.773,153.869,380.646,152.83,383.647,153.928z"/>
	<path fill="#0083D6" d="M65.04,310.545c0.085-0.009,0.169-0.021,0.254-0.028c0.045-0.187,0.064-0.38,0.141-0.556
		c1.133-2.632,2.266-5.262,3.401-7.89c0.996-2.299,3.581-3.497,5.976-2.746c1.127,0.354,2.244,0.742,3.345,1.157
		c2.347,0.887,3.356,3.301,2.366,5.618c-0.767,1.789-1.541,3.573-2.315,5.356c-0.442,1.018-0.894,2.029-1.379,3.136
		c2.283-0.352,4.35-1.249,6.228-2.644c5.542-4.114,7.174-11.709,2.921-17.257c-0.244-0.319-0.236-0.566-0.081-0.924
		c3.079-7.106,6.149-14.218,9.206-21.332c0.151-0.354,0.342-0.522,0.728-0.595c1.704-0.325,3.275-1.014,4.747-1.924
		c5.801-3.594,7.933-11.071,4.716-16.535c-0.35-0.596-0.758-1.152-1.202-1.816c-0.144,0.295-0.227,0.447-0.293,0.605
		c-1.129,2.614-2.252,5.228-3.382,7.839c-1.076,2.482-3.67,3.646-6.218,2.791c-0.987-0.327-1.967-0.672-2.949-1.008
		c-2.523-0.863-3.599-3.331-2.534-5.789c1.133-2.61,2.258-5.226,3.384-7.84c0.072-0.166,0.124-0.34,0.213-0.571
		c-0.269,0.043-0.446,0.06-0.621,0.1c-2.197,0.482-4.178,1.422-5.933,2.823c-5.365,4.291-6.537,11.734-2.64,16.845
		c0.282,0.374,0.354,0.672,0.146,1.146c-3.046,7.01-6.073,14.024-9.075,21.043c-0.225,0.527-0.532,0.728-1.078,0.861
		c-4.468,1.091-7.736,3.642-9.597,7.708c-1.607,3.51-1.485,6.971,0.163,10.276C64.052,309.153,64.581,309.833,65.04,310.545z
		 M79.614,287.381c2.047-4.75,4.101-9.505,6.148-14.258c0.234-0.548,0.627-0.942,1.055-1.166c0.903-0.396,1.877-0.261,2.478,0.279
		c0.626,0.562,0.795,1.386,0.44,2.209c-2.057,4.771-4.114,9.537-6.174,14.306c-0.5,1.155-1.697,1.729-2.833,1.357
		C79.595,289.738,79.104,288.566,79.614,287.381z"/>
	<path fill="#0083D6" d="M489.73,526.37c0.248-0.754,0.497-1.511,0.743-2.268c0.251-0.757,0.5-1.512,0.749-2.269
		c0.244-0.744,0.491-1.487,0.731-2.233c0.042-0.123,0.109-0.186,0.238-0.226c1.173-0.354,2.347-0.713,3.515-1.084
		c1.231-0.39,2.421-0.876,3.557-1.497c2.231-1.217,4.104-2.842,5.579-4.912c0.44-0.618,0.854-1.256,1.255-1.896
		c0.43-0.682,0.841-1.371,1.237-2.07c0.426-0.751,0.786-1.538,1.115-2.339c0.517-1.258,0.934-2.545,1.246-3.869
		c0.29-1.257,0.48-2.528,0.487-3.82c0.003-0.932-0.091-1.854-0.37-2.747c-0.122-0.382-0.382-0.633-0.749-0.779
		c-0.275-0.108-0.568-0.13-0.862-0.131c-0.501,0-0.988,0.086-1.474,0.215c-1.206,0.318-2.29,0.879-3.311,1.592
		c-3.325,2.319-5.886,5.29-7.676,8.931c-0.426,0.864-0.823,1.743-1.168,2.646c-0.34,0.89-0.674,1.779-0.987,2.678
		c-0.332,0.958-0.643,1.923-0.951,2.891c-0.048,0.148-0.115,0.211-0.268,0.251c-1.553,0.391-3.107,0.771-4.65,1.189
		c-2.034,0.547-4.029,1.21-5.963,2.052c-1.774,0.773-3.465,1.695-5.017,2.857c-1.777,1.329-3.275,2.916-4.43,4.818
		c-0.61,1.004-1.093,2.066-1.462,3.183c-0.415,1.257-0.689,2.542-0.811,3.862c-0.167,1.823-0.062,3.631,0.412,5.404
		c0.701,2.646,1.975,4.987,3.783,7.037c0.861,0.978,1.833,1.829,2.951,2.501c1.085,0.654,2.236,1.174,3.449,1.544
		c0.148,0.045,0.293,0.093,0.445,0.139c-0.014,0.055-0.022,0.092-0.034,0.126c-0.127,0.383-0.254,0.767-0.381,1.15
		c-0.312,0.938-0.621,1.88-0.929,2.816c-0.28,0.845-0.566,1.686-0.837,2.533c-0.338,1.052-0.739,2.075-1.287,3.038
		c-0.399,0.7-0.862,1.353-1.434,1.924c-1.548,1.544-3.389,2.114-5.535,1.647c-1.022-0.22-1.95-0.663-2.797-1.273
		c-0.558-0.404-1.059-0.866-1.466-1.428c-0.231-0.317-0.428-0.658-0.534-1.039c-0.03-0.111-0.045-0.226-0.073-0.377
		c0.11,0.055,0.177,0.087,0.243,0.119c0.687,0.348,1.402,0.575,2.172,0.634c1.286,0.094,2.345-0.345,3.154-1.352
		c0.447-0.554,0.764-1.181,0.959-1.861c0.282-0.974,0.288-1.945-0.07-2.896c-0.506-1.333-1.438-2.226-2.819-2.607
		c-1.09-0.302-2.15-0.16-3.163,0.321c-1.166,0.556-1.975,1.475-2.521,2.626c-0.612,1.287-0.8,2.649-0.578,4.058
		c0.365,2.303,1.626,4.008,3.554,5.258c0.65,0.423,1.348,0.75,2.075,1.015c0.934,0.344,1.896,0.563,2.892,0.611
		c1.965,0.092,3.712-0.458,5.205-1.76c0.903-0.788,1.578-1.752,2.123-2.812c0.387-0.756,0.672-1.552,0.936-2.355
		c0.418-1.279,0.836-2.554,1.255-3.832c0.372-1.139,0.749-2.28,1.124-3.419c0.063-0.188,0.128-0.373,0.191-0.567
		c0.089,0.012,0.162,0.02,0.236,0.028c0.915,0.128,1.834,0.166,2.755,0.067c3.769-0.403,6.597-2.27,8.513-5.527
		c0.456-0.779,0.822-1.604,1.127-2.456c0.345-0.963,0.586-1.952,0.686-2.973c0.191-1.955-0.109-3.826-1.032-5.571
		c-1.086-2.052-2.714-3.52-4.85-4.424c-0.159-0.066-0.319-0.131-0.491-0.2c0.021-0.077,0.037-0.146,0.061-0.216
		C489.58,526.819,489.654,526.594,489.73,526.37z M494.483,511.932c0.185-0.543,0.364-1.088,0.562-1.624
		c0.313-0.86,0.698-1.69,1.164-2.479c1.404-2.379,3.288-4.311,5.542-5.893c0.642-0.454,1.33-0.83,2.07-1.105
		c0.433-0.16,0.877-0.275,1.343-0.302c0.666-0.04,1.27,0.123,1.784,0.563c0.436,0.373,0.652,0.855,0.681,1.424
		c0.021,0.492-0.089,0.964-0.26,1.421c-0.351,0.932-0.895,1.75-1.534,2.502c-1.606,1.894-3.518,3.396-5.776,4.453
		c-1.854,0.872-3.768,1.568-5.759,2.054c-0.029,0.006-0.061,0.013-0.09,0.02c-0.011,0.002-0.023-0.006-0.06-0.014
		C494.263,512.604,494.368,512.265,494.483,511.932z M491.409,540.54c-0.21,0.824-0.557,1.592-0.98,2.329
		c-0.377,0.647-0.806,1.258-1.32,1.802c-1.449,1.539-3.238,2.261-5.345,2.217c-0.249-0.005-0.495-0.026-0.729-0.037
		c-0.014-0.022-0.018-0.026-0.021-0.033c-0.001-0.006-0.005-0.01-0.005-0.018c0-0.011-0.001-0.025,0.005-0.037
		c1.576-4.793,3.156-9.587,4.749-14.417c0.188,0.114,0.365,0.206,0.528,0.314C490.925,534.363,492.167,537.503,491.409,540.54z
		 M488.063,526.898c-0.294-0.032-0.588-0.075-0.883-0.097c-1.9-0.136-3.675,0.288-5.337,1.193c-1.384,0.754-2.55,1.759-3.44,3.061
		c-1.415,2.066-1.916,4.334-1.411,6.8c0.226,1.099,0.713,2.081,1.478,2.911c0.266,0.289,0.562,0.547,0.896,0.755
		c0.068,0.04,0.145,0.079,0.221,0.1c0.255,0.063,0.48-0.175,0.391-0.42c-0.047-0.124-0.123-0.245-0.207-0.35
		c-1.185-1.434-1.456-3.059-0.981-4.822c0.442-1.642,1.487-2.817,2.947-3.642c1.426-0.803,2.935-1.006,4.526-0.615
		c0.042,0.01,0.083,0.021,0.125,0.036c0.017,0.007,0.03,0.018,0.06,0.04c-1.626,4.905-3.253,9.816-4.889,14.746
		c-0.202-0.058-0.394-0.101-0.583-0.155c-1.242-0.359-2.43-0.855-3.56-1.48c-0.851-0.471-1.587-1.093-2.256-1.793
		c-1.351-1.418-2.374-3.039-2.948-4.918c-0.657-2.144-0.724-4.307-0.104-6.474c0.283-0.986,0.699-1.916,1.243-2.788
		c1.249-2.008,2.936-3.557,4.944-4.777c1.358-0.82,2.805-1.451,4.292-1.995c1.587-0.578,3.21-1.04,4.835-1.488
		c0.936-0.259,1.871-0.522,2.806-0.782c0.045-0.014,0.095-0.025,0.145-0.037C490.368,520.048,488.155,526.743,488.063,526.898z"/>
	<path fill="#0083D6" d="M253.749,620.761c-7.991-2.921-16.178-5.295-24.217-8.08c-2.633-0.484-4.518-2.662-7.168-2.91
		c-6.776-2.884-13.159-6.623-19.759-9.889c-2.194-0.406-5.207-4.025-6.961-2.361c-5.903,12.427-11.144,25.156-16.494,37.826
		c-1.226,3.287-2.991,6.476-3.677,9.904c8.227,5.252,16.978,9.587,25.38,14.536c1.231,0.521,2.593,0.706,3.752,1.451
		c6.824,2.368,13.847,4.197,20.78,6.261c2.813,0.448,6.152,2.432,8.686,1.907c5.383-12.097,10.392-24.356,15.414-36.607
		C250.963,628.822,252.931,624.918,253.749,620.761z M236.924,620.623c-1.745-0.269-3.338-1.118-4.942-1.811
		C231.756,618.417,236.009,619.794,236.924,620.623z M213.727,611.086c-1.793-0.519-3.519-1.308-5.156-2.198
		C208.311,608.242,212.564,610.354,213.727,611.086z M203.6,656.191c-0.436,0.268-0.945,0.458-1.438,0.322
		c-5.501-1.675-10.749-4.404-14.755-8.689c-1.896-2.171-4.558-3.149-7.226-3.888c5.361-14.429,11.515-28.542,17.394-42.765
		c2.707,1.064,4.545,3.55,6.554,5.595c2.549,3.377,6.19,5.726,10.335,6.373c1.822,1.127,7.398-0.374,6.564,2.838
		c-4.943,12.703-10.392,25.208-15.589,37.808C205.038,654.796,204.756,655.918,203.6,656.191z M232.767,662.72
		c-0.887,4.386-4.76,0.238-7.278,0.222c-3.063,0.05-6.158,0.028-9.119-0.762c-1.609-0.367-3.167-0.911-4.712-1.474
		c-2.112-0.979-6.738-1.691-5.042-5.192c5.201-13.203,10.843-26.232,16.259-39.348c0.566-2.279,2.653,1.118,3.851,1.383
		c3.669,2.524,7.726,5.423,12.467,4.711c3.441,0.034,7.135-0.718,10.362,0.612C243.977,636.165,238.519,649.504,232.767,662.72z"/>
	<path fill="#0083D6" d="M84.917,503.841c-0.203,1.222-0.479,2.392-0.795,3.481c-0.422,1.456-0.917,2.816-1.496,4.157
		c-0.753,1.756-1.375,2.829-1.375,2.829l3.946,1.241c0,0,0.083-0.478,0.219-1.348c0.173-1.099,0.43-2.831,0.709-5.038
		c0.229-1.79,0.475-3.895,0.7-6.227c0.24-0.011,0.479-0.027,0.719-0.047c13.561-1.121,17.438-15.203,15.002-28.273
		c-2.236-12.016-21.738-36.77-21.738-36.77s2.903,7.336-10.878,33.01c-8.862,16.516,1.426,31.442,15.083,32.075
		c0.54-2.743,1.709-8.692,2.345-11.882c0.846-4.235,1.875-19.559,2.085-22.083c0.212-2.526-0.337,17.547-0.537,20.818
		C88.744,492.503,85.708,501.523,84.917,503.841z"/>
	<path fill="#0083D6" d="M539.005,349.438c0.015-0.032,0.023-0.066,0.036-0.098c0.014-0.033,0.024-0.066,0.038-0.1
		c3.751-9.729,0.588-21.12-8.329-27.39c-4.07-2.861-8.742-4.236-13.365-4.236c-7.321,0-14.525,3.443-19.055,9.888
		c-7.396,10.514-4.861,25.029,5.65,32.421c4.068,2.861,8.735,4.233,13.355,4.233c5.576,0,11.085-1.999,15.397-5.799
		c0.026-0.021,0.051-0.047,0.076-0.07c0.024-0.021,0.049-0.045,0.073-0.07c0.354-0.316,0.696-0.646,1.033-0.985l18.807,14.546
		c2.202,1.743,4.532,2.23,5.21,1.093l1.622-2.733c0.675-1.137-0.56-3.474-2.763-5.216l-18.347-14.189
		C538.646,350.305,538.833,349.873,539.005,349.438z M535.361,347.774c-0.015,0.038-0.029,0.077-0.044,0.117
		c-0.015,0.036-0.028,0.072-0.042,0.11c-0.563,1.41-1.283,2.746-2.145,3.971c-0.83,1.182-1.81,2.281-2.913,3.268l-0.072,0.064
		l-0.058,0.056c-0.008,0.009-0.017,0.018-0.026,0.025c-3.509,3.079-8.027,4.775-12.727,4.775c-3.971,0-7.794-1.213-11.056-3.507
		c-4.212-2.961-7.019-7.385-7.902-12.457c-0.885-5.072,0.26-10.185,3.222-14.396c3.605-5.128,9.507-8.19,15.786-8.19
		c3.974,0,7.801,1.215,11.066,3.509C535.69,330.208,538.528,339.521,535.361,347.774z"/>
	<path fill="#002146" d="M179.282,235.824c-0.92-4.147-4.046-7.709-8.212-9.33c-2.652-0.988-5.527-1.11-8.149-0.428
		c-1.575,0.409-3.059,1.108-4.356,2.085c-2.235,1.682-3.151,3.937-3.579,6.567c-0.254,1.576-0.335,3.293-0.418,5.096
		c-0.108,2.367-0.225,4.811-0.795,7.119c-1.318,5.282-5.401,7.18-12.141,5.637c-0.872-0.196-1.784-0.429-2.725-0.688
		c-0.442-0.119-0.912-0.263-1.369-0.395c-0.501-0.145-0.996-0.287-1.515-0.449c-0.577-0.178-1.18-0.378-1.779-0.574
		c-0.429-0.142-0.854-0.278-1.289-0.429c-0.642-0.219-1.299-0.455-1.959-0.692c-0.437-0.16-0.876-0.316-1.317-0.484
		c-0.315-0.116-0.61-0.216-0.927-0.336c-0.195-0.074-0.409-0.172-0.603-0.245c-1.808-0.693-3.669-1.448-5.578-2.26
		c-0.351-0.147-0.697-0.299-1.046-0.451c-1.603-0.689-3.222-1.405-4.877-2.168c-0.102,0.22-0.199,0.43-0.304,0.657
		c-0.171,0.376-0.345,0.759-0.52,1.147c-0.25,0.556-0.503,1.123-0.761,1.702c-0.191,0.436-0.382,0.876-0.576,1.322
		c-0.244,0.568-0.49,1.145-0.737,1.73c-0.198,0.472-0.398,0.946-0.592,1.423c-0.241,0.583-0.476,1.174-0.71,1.766
		c-0.197,0.495-0.396,0.99-0.585,1.49c-0.233,0.599-0.457,1.199-0.679,1.807c-0.187,0.499-0.373,0.998-0.554,1.499
		c-0.221,0.626-0.429,1.246-0.642,1.872c-0.159,0.476-0.326,0.955-0.479,1.43c-0.224,0.693-0.426,1.382-0.63,2.066
		c-0.117,0.397-0.247,0.801-0.356,1.192c-0.299,1.073-0.575,2.132-0.813,3.166c-1.259,5.509,0.298,6.932,2.171,7.645
		c0.267,0.101,0.555,0.188,0.864,0.264c1.973,0.489,4.139,0.594,6.432,0.7c2.995,0.141,6.091,0.285,8.902,1.354
		c2,0.761,3.626,1.902,4.954,3.467C144.774,263.344,161.116,248.137,179.282,235.824z"/>
	<path fill="#002146" d="M107.172,302.574c-1.783-1.441-3.471-2.806-5.267-3.748c-0.285-0.15-0.559-0.274-0.826-0.377
		c-1.872-0.712-3.979-0.688-6.7,4.266c-0.509,0.929-1.008,1.904-1.497,2.905c-0.18,0.369-0.353,0.759-0.532,1.138
		c-0.3,0.643-0.604,1.287-0.896,1.951c-0.203,0.459-0.396,0.928-0.597,1.396c-0.254,0.604-0.511,1.206-0.762,1.82
		c-0.198,0.495-0.391,0.993-0.584,1.49c-0.235,0.598-0.468,1.195-0.691,1.798c-0.19,0.5-0.371,1-0.552,1.501
		c-0.219,0.6-0.438,1.2-0.643,1.794c-0.171,0.489-0.337,0.971-0.504,1.453c-0.204,0.601-0.406,1.202-0.603,1.795
		c-0.15,0.458-0.297,0.907-0.442,1.355c-0.194,0.608-0.384,1.207-0.569,1.794c-0.125,0.398-0.248,0.797-0.368,1.184
		c-0.07,0.239-0.141,0.47-0.211,0.703c0.208,0.064,0.396,0.13,0.603,0.194c1.945,0.595,3.85,1.2,5.677,1.815
		c0.242,0.082,0.469,0.166,0.711,0.252c1.605,0.546,3.151,1.104,4.648,1.663c0.264,0.101,0.558,0.193,0.817,0.292
		c0.192,0.074,0.363,0.145,0.549,0.22c0.354,0.136,0.69,0.271,1.038,0.409c0.788,0.309,1.571,0.619,2.317,0.931
		c0.139,0.058,0.273,0.116,0.409,0.175c3.523-8.926,7.585-17.481,12.145-25.64C111.403,305.991,109.255,304.26,107.172,302.574z"/>
	<path fill="#002146" d="M566.049,413.581c-0.329-0.132-0.648-0.264-0.988-0.396c-0.66-0.261-1.353-0.518-2.042-0.774
		c-0.408-0.156-0.812-0.309-1.23-0.459c-0.647-0.234-1.317-0.471-1.98-0.706c-0.503-0.175-1-0.35-1.503-0.521
		c-0.624-0.213-1.262-0.423-1.9-0.633c-0.579-0.188-1.161-0.38-1.756-0.569c-0.612-0.195-1.233-0.389-1.859-0.582
		c-0.362-0.112-0.724-0.221-1.088-0.33c-0.06,0.194-0.123,0.407-0.186,0.604c-0.143,0.47-0.293,0.946-0.443,1.431
		c-0.176,0.562-0.357,1.127-0.542,1.706c-0.154,0.476-0.307,0.944-0.471,1.431c-0.198,0.609-0.406,1.221-0.622,1.844
		c-0.161,0.486-0.327,0.969-0.5,1.458c-0.228,0.641-0.456,1.279-0.693,1.926c-0.175,0.482-0.348,0.959-0.527,1.442
		c-0.249,0.667-0.514,1.329-0.777,1.997c-0.179,0.46-0.353,0.917-0.535,1.378c-0.283,0.693-0.578,1.372-0.867,2.057
		c-0.184,0.424-0.355,0.852-0.541,1.271c-0.325,0.74-0.665,1.457-1.004,2.173c-0.16,0.342-0.314,0.693-0.482,1.025
		c-0.504,1.039-1.022,2.053-1.553,3.02c-1.201,2.186-4.996,9.142-12.281,5.323c-2.105-1.107-4.01-2.646-5.851-4.136
		c-2.353-1.902-4.67-3.596-7.035-4.407c-0.311-0.105-0.625-0.171-0.937-0.244c-0.161-0.039-0.322-0.099-0.487-0.129
		c-0.956-0.172-1.926-0.185-2.909,0.015c-1.898,0.381-3.679,1.229-5.217,2.427c-0.645,6.083-1.562,12.17-2.755,18.249
		c0.025,0.031,0.047,0.066,0.07,0.098c2.157,2.862,5.918,3.615,10.147,3.906c0.495,0.032,1.003,0.063,1.516,0.089
		c2.364,0.109,4.811,0.224,7.123,0.8c7.947,2.001,6.189,9.705,5.635,12.137c-0.246,1.074-0.533,2.176-0.846,3.289
		c-0.097,0.358-0.215,0.723-0.32,1.081c-0.225,0.764-0.448,1.525-0.696,2.297c-0.139,0.436-0.297,0.868-0.442,1.308
		c-0.234,0.7-0.467,1.406-0.717,2.113c-0.168,0.463-0.343,0.922-0.515,1.386c-0.247,0.674-0.49,1.345-0.747,2.008
		c-0.188,0.48-0.375,0.954-0.564,1.428c-0.253,0.64-0.507,1.271-0.763,1.901c-0.196,0.481-0.394,0.951-0.595,1.421
		c-0.255,0.609-0.505,1.205-0.762,1.793c-0.199,0.471-0.397,0.924-0.599,1.382c-0.247,0.556-0.488,1.097-0.729,1.633
		c-0.212,0.467-0.415,0.92-0.62,1.366c-0.085,0.186-0.178,0.388-0.26,0.57c0.386,0.181,0.772,0.361,1.156,0.535
		c0.506,0.23,1.016,0.464,1.517,0.686c0.701,0.313,1.39,0.612,2.08,0.914c0.471,0.198,0.941,0.404,1.408,0.602
		c0.698,0.295,1.382,0.574,2.063,0.854c0.442,0.18,0.885,0.362,1.323,0.539c0.679,0.27,1.352,0.528,2.019,0.781
		c0.418,0.16,0.844,0.325,1.255,0.478c0.657,0.248,1.295,0.471,1.936,0.699c0.398,0.142,0.805,0.289,1.195,0.424
		c0.643,0.22,1.254,0.416,1.873,0.615c0.365,0.12,0.74,0.248,1.09,0.356c0.646,0.2,1.257,0.374,1.873,0.55
		c0.303,0.086,0.616,0.186,0.909,0.264c0.89,0.245,1.753,0.462,2.568,0.651c5.644,1.285,7.21-0.21,7.912-3.036
		c0.491-1.971,0.595-4.138,0.7-6.43c0.026-0.544,0.053-1.097,0.083-1.651c0.229-3.908,0.768-8.036,3.696-11.21
		c0.474-0.519,1.015-1.011,1.63-1.472c0.724-0.549,1.509-1.003,2.316-1.413c5.166-20.47,7.874-41.12,8.189-61.583
		c-0.165-0.068-0.319-0.139-0.479-0.21C567.45,414.141,566.748,413.859,566.049,413.581z"/>
	<path fill="#002146" d="M511.758,426.322c2.298-0.461,4.503-0.275,6.745,0.579c2.813,1.069,5.223,3.021,7.556,4.906
		c1.784,1.443,3.473,2.807,5.271,3.75c0.283,0.147,0.551,0.274,0.824,0.379c1.869,0.711,3.977,0.683,6.696-4.271
		c0.51-0.93,1.011-1.902,1.498-2.903c0.177-0.368,0.35-0.754,0.526-1.127c0.307-0.648,0.612-1.297,0.899-1.963
		c0.205-0.46,0.397-0.929,0.599-1.387c0.252-0.61,0.509-1.214,0.76-1.829c0.201-0.492,0.391-0.99,0.588-1.484
		c0.232-0.603,0.467-1.201,0.689-1.804c0.19-0.5,0.373-1.001,0.55-1.5c0.224-0.601,0.437-1.198,0.646-1.793
		c0.172-0.486,0.339-0.973,0.5-1.457c0.208-0.602,0.408-1.196,0.604-1.782c0.153-0.462,0.302-0.918,0.447-1.37
		c0.193-0.604,0.385-1.196,0.56-1.778c0.134-0.405,0.257-0.809,0.374-1.204c0.079-0.237,0.142-0.46,0.213-0.691
		c-1.782-0.538-3.5-1.093-5.193-1.655c-0.289-0.096-0.579-0.188-0.868-0.289c-2.048-0.689-4.011-1.386-5.891-2.097
		c-0.161-0.061-0.338-0.114-0.496-0.175c-0.261-0.1-0.49-0.196-0.744-0.295c-0.576-0.223-1.143-0.446-1.702-0.675
		c-0.541-0.219-1.086-0.435-1.604-0.655c-0.532-0.22-1.043-0.443-1.553-0.663c-0.486-0.214-0.982-0.427-1.456-0.64
		c-0.582-0.266-1.134-0.529-1.688-0.796c-0.345-0.168-0.717-0.335-1.055-0.504c-0.881-0.438-1.724-0.873-2.514-1.309
		c-4.556-2.501-6.696-5.457-6.405-8.819l0.534,0.376c0.998-1.736,2.365-3.29,3.687-4.788c2.684-3.053,5.005-5.694,4.387-9.403
		c-0.591-3.59-3.17-6.758-6.722-8.273c-3.558-1.45-7.646-1.064-10.662,1.016c-1.187,0.818-1.883,2.038-2.247,3.585l-0.305-0.354
		c0.035,0.504,0.072,0.99,0.107,1.487c-0.303,2.371-0.027,5.349,0.423,8.756l0.276,0.194c1.276,15.404,2.544,28.556,1.06,46.15
		C508.959,427.102,510.33,426.609,511.758,426.322z"/>
	<path fill="#002146" d="M511.732,488.825c0.67,0.29,1.342,0.581,2.029,0.884c0.561,0.25,1.13,0.515,1.705,0.774
		c0.37,0.168,0.738,0.328,1.117,0.503c0.103-0.226,0.206-0.44,0.305-0.668c0.174-0.367,0.347-0.747,0.513-1.13
		c0.258-0.56,0.512-1.134,0.77-1.719c0.191-0.43,0.38-0.863,0.571-1.305c0.245-0.574,0.493-1.158,0.737-1.744
		c0.202-0.47,0.397-0.939,0.593-1.419c0.239-0.582,0.478-1.174,0.709-1.769c0.201-0.492,0.397-0.989,0.588-1.488
		c0.234-0.599,0.456-1.2,0.682-1.801c0.18-0.503,0.37-1.001,0.549-1.504c0.221-0.626,0.431-1.245,0.644-1.864
		c0.157-0.484,0.325-0.963,0.478-1.441c0.227-0.688,0.429-1.373,0.628-2.055c0.118-0.399,0.249-0.808,0.36-1.202
		c0.301-1.072,0.574-2.133,0.812-3.166c1.26-5.509-0.298-6.927-2.167-7.639c-0.273-0.104-0.557-0.191-0.866-0.268
		c-1.972-0.49-4.139-0.593-6.431-0.701c-2.997-0.139-6.093-0.285-8.901-1.353l-0.005-0.002c-1.337-0.509-2.504-1.189-3.529-2.051
		c-2.051,9.423-4.783,18.812-8.204,28.112c0.581,0.166,1.168,0.338,1.771,0.524c0.221,0.069,0.452,0.147,0.669,0.217
		c0.784,0.246,1.58,0.505,2.394,0.786c0.281,0.093,0.571,0.2,0.854,0.3c0.777,0.273,1.555,0.549,2.353,0.847
		c0.352,0.131,0.72,0.273,1.082,0.411c0.737,0.281,1.483,0.565,2.243,0.869c0.429,0.172,0.863,0.351,1.299,0.526
		c0.713,0.291,1.422,0.578,2.146,0.886C510.723,488.387,511.229,488.608,511.732,488.825z"/>
	<path fill="#002146" d="M515.004,256.845c-1.873-0.712-3.979-0.687-6.698,4.266c-0.535,0.979-1.062,2.007-1.574,3.063
		c-0.18,0.379-0.353,0.776-0.534,1.158c-0.323,0.699-0.647,1.392-0.959,2.105c-0.203,0.466-0.393,0.938-0.594,1.41
		c-0.274,0.654-0.549,1.307-0.813,1.967c-0.198,0.497-0.387,0.99-0.577,1.49c-0.25,0.637-0.491,1.272-0.727,1.906
		c-0.184,0.502-0.364,0.996-0.541,1.489c-0.225,0.624-0.447,1.242-0.655,1.848c-0.163,0.474-0.326,0.938-0.479,1.396
		c-0.212,0.614-0.411,1.222-0.604,1.809c-0.136,0.413-0.269,0.822-0.397,1.222c-0.199,0.609-0.38,1.2-0.555,1.769
		c-0.102,0.324-0.205,0.653-0.301,0.961c-0.052,0.172-0.094,0.316-0.148,0.483c0.231,0.073,0.442,0.145,0.671,0.214
		c1.913,0.589,3.783,1.183,5.579,1.787c0.303,0.104,0.584,0.207,0.885,0.31c1.543,0.531,3.027,1.063,4.469,1.602
		c0.278,0.104,0.596,0.209,0.87,0.314c0.201,0.076,0.39,0.152,0.587,0.231c0.294,0.114,0.578,0.229,0.869,0.345
		c0.842,0.329,1.681,0.662,2.479,0.994c0.215,0.092,0.414,0.18,0.632,0.271c0.823,0.351,1.638,0.697,2.407,1.046
		c0.292,0.133,0.55,0.264,0.827,0.389c0.664,0.31,1.33,0.615,1.952,0.927c0.894,0.44,1.739,0.88,2.543,1.317
		c5.793,3.182,7.671,7.1,5.623,11.647c-1.38,1.919-2.229,3.882-1.825,6.298c0.59,3.591,3.17,6.758,6.721,8.274
		c3.558,1.449,7.646,1.064,10.663-1.016c3.118-2.151,3.618-6.905,3.958-10.943c0.011-0.136,0.003-0.291-0.016-0.458
		c0.006-0.003,0.011-0.008,0.016-0.011c-0.009-0.022-0.019-0.044-0.027-0.066c-0.305-2.299-3.074-7.147-4.058-9.518l-0.016-0.001
		c-5.345-11.922-11.515-23.473-18.536-34.521c-1.778-1.051-3.426-2.355-5.022-3.649c-1.783-1.443-3.47-2.808-5.271-3.75
		C515.545,257.074,515.274,256.949,515.004,256.845z"/>
	<path fill="#002146" d="M60.336,392.378c-0.101,0.355-0.217,0.723-0.324,1.082c-0.224,0.763-0.45,1.522-0.696,2.294
		c-0.14,0.435-0.292,0.868-0.439,1.305c-0.235,0.708-0.47,1.409-0.722,2.112c-0.167,0.468-0.339,0.929-0.51,1.39
		c-0.247,0.674-0.496,1.341-0.75,2.008c-0.187,0.482-0.374,0.953-0.565,1.428c-0.25,0.638-0.503,1.272-0.759,1.899
		c-0.198,0.482-0.397,0.953-0.596,1.428c-0.254,0.603-0.506,1.196-0.758,1.784c-0.203,0.47-0.403,0.928-0.604,1.389
		c-0.245,0.553-0.484,1.091-0.725,1.625c-0.211,0.467-0.417,0.921-0.622,1.37c-0.087,0.187-0.174,0.389-0.261,0.57
		c0.39,0.182,0.777,0.36,1.164,0.538c0.528,0.238,1.054,0.477,1.573,0.708c0.642,0.286,1.272,0.56,1.903,0.835
		c0.544,0.234,1.09,0.469,1.627,0.697c0.602,0.252,1.189,0.493,1.778,0.736c0.54,0.218,1.081,0.441,1.608,0.651
		c0.574,0.23,1.137,0.443,1.701,0.658c0.521,0.205,1.047,0.409,1.561,0.601c0.546,0.201,1.07,0.384,1.604,0.575
		c0.502,0.182,1.016,0.365,1.503,0.533c0.543,0.187,1.065,0.354,1.593,0.524c0.448,0.146,0.903,0.303,1.337,0.433
		c0.575,0.181,1.122,0.336,1.676,0.496c0.36,0.105,0.735,0.219,1.086,0.313c0.884,0.242,1.738,0.457,2.558,0.646
		c5.636,1.286,7.206-0.209,7.909-3.039c0.489-1.965,0.591-4.133,0.699-6.431c0.163-3.494,7.245-55.442,15.529-77.489
		c-0.043-0.018-0.083-0.035-0.123-0.052c-0.609-0.258-1.248-0.515-1.884-0.768c-0.389-0.154-0.765-0.312-1.162-0.466
		c-0.626-0.244-1.277-0.488-1.926-0.732c-0.446-0.164-0.883-0.33-1.336-0.495c-0.629-0.231-1.278-0.455-1.924-0.685
		c-0.515-0.181-1.027-0.361-1.55-0.538c-0.614-0.211-1.236-0.414-1.861-0.62c-0.603-0.199-1.207-0.395-1.818-0.593
		c-0.58-0.184-1.17-0.366-1.759-0.55c-0.386-0.117-0.777-0.236-1.167-0.354c-0.058,0.195-0.127,0.407-0.185,0.602
		c-0.146,0.474-0.293,0.947-0.446,1.437c-0.174,0.559-0.353,1.119-0.538,1.697c-0.156,0.477-0.31,0.952-0.471,1.438
		c-0.203,0.605-0.409,1.22-0.619,1.837c-0.168,0.49-0.333,0.975-0.505,1.466c-0.226,0.64-0.458,1.277-0.694,1.92
		c-0.173,0.483-0.347,0.96-0.527,1.445c-0.254,0.669-0.513,1.334-0.776,2.002c-0.179,0.457-0.356,0.915-0.54,1.372
		c-0.28,0.694-0.572,1.379-0.868,2.065c-0.178,0.422-0.353,0.847-0.537,1.262c-0.331,0.744-0.668,1.469-1.009,2.189
		c-0.162,0.337-0.313,0.681-0.474,1.013c-0.505,1.038-1.028,2.052-1.559,3.018c-1.2,2.186-5.02,9.104-12.275,5.327
		c-2.106-1.107-4.012-2.648-5.851-4.136c-3.76-3.042-7.438-5.561-11.371-4.77c-4.245,0.857-7.909,4.023-9.562,8.27
		c-1.577,4.248-0.944,9.046,1.659,12.504c2.416,3.209,6.832,3.77,11.661,3.996c2.367,0.112,4.81,0.227,7.123,0.799
		c0.082,0.02,0.15,0.05,0.229,0.073c0.406,0.11,0.798,0.229,1.154,0.366c6.399,2.511,4.774,9.418,4.252,11.698
		C60.931,390.163,60.65,391.262,60.336,392.378z"/>
	<path fill="#002146" d="M468.477,259.695c3.033-3.749,5.648-6.988,4.768-11.372c-0.855-4.246-4.021-7.907-8.265-9.561
		c-4.248-1.577-9.043-0.944-12.505,1.659c-3.577,2.689-3.773,6.849-3.999,11.667c-0.104,2.362-0.222,4.811-0.794,7.115
		c-0.196,0.789-0.462,1.493-0.783,2.131c15.126,15.188,27.729,32.521,37.519,51.282c0.184-0.3,0.371-0.623,0.563-0.971
		c0.401-0.731,0.814-1.517,1.221-2.341c0.121-0.255,0.249-0.531,0.375-0.79c0.286-0.59,0.568-1.184,0.853-1.813
		c0.155-0.341,0.313-0.706,0.468-1.057c0.255-0.585,0.515-1.169,0.775-1.782c0.166-0.404,0.335-0.834,0.506-1.253
		c0.241-0.596,0.486-1.188,0.728-1.813c0.175-0.453,0.351-0.926,0.528-1.393c0.234-0.617,0.466-1.235,0.699-1.875
		c0.179-0.493,0.358-1.007,0.541-1.515c0.223-0.641,0.448-1.276,0.673-1.938c0.179-0.532,0.361-1.078,0.539-1.621
		c0.215-0.663,0.435-1.325,0.654-2c0.174-0.563,0.354-1.133,0.528-1.707c0.12-0.387,0.238-0.787,0.356-1.184
		c-1.771-0.533-3.485-1.087-5.172-1.646c-0.306-0.101-0.609-0.202-0.918-0.306c-2.023-0.679-3.97-1.373-5.834-2.075
		c-0.17-0.063-0.366-0.128-0.536-0.193c-0.275-0.104-0.526-0.211-0.803-0.316c-0.517-0.201-1.023-0.4-1.528-0.604
		c-0.595-0.239-1.186-0.479-1.761-0.72c-0.471-0.196-0.916-0.392-1.375-0.588c-0.544-0.238-1.092-0.472-1.614-0.71
		c-0.518-0.236-1.006-0.473-1.497-0.705c-0.407-0.193-0.835-0.388-1.222-0.585c-0.876-0.435-1.71-0.865-2.499-1.297
		c-6.06-3.329-7.854-7.46-5.319-12.279C465.449,263.44,466.99,261.533,468.477,259.695z"/>
	<path fill="#002146" d="M178.802,593.284c0.468-0.852,0.925-1.75,1.376-2.667c0.185-0.389,0.379-0.803,0.566-1.206
		c0.258-0.547,0.519-1.094,0.767-1.655c0.197-0.445,0.396-0.909,0.597-1.372c-17.164-11.229-32.316-24.739-45.198-39.962
		c-1.647,0.596-3.683,0.7-6.105,0.308c-0.472-0.077-0.937-0.135-1.448-0.251c-0.059-0.013-0.126-0.033-0.189-0.047
		c-0.791-0.185-1.614-0.389-2.471-0.621c-0.323-0.088-0.669-0.195-1.001-0.292c-0.616-0.177-1.23-0.352-1.876-0.55
		c-0.354-0.107-0.729-0.235-1.09-0.353c-0.651-0.209-1.302-0.418-1.972-0.646c-0.375-0.129-0.755-0.269-1.127-0.398
		c-0.698-0.247-1.397-0.494-2.114-0.761c-0.372-0.138-0.742-0.283-1.116-0.425c-0.749-0.285-1.503-0.573-2.272-0.882
		c-0.376-0.146-0.755-0.303-1.129-0.455c-0.785-0.321-1.573-0.645-2.374-0.983c-0.396-0.165-0.781-0.332-1.175-0.504
		c-0.794-0.34-1.595-0.689-2.404-1.053c-0.441-0.194-0.875-0.393-1.32-0.593c-0.451-0.207-0.896-0.399-1.345-0.609
		c-0.177,0.374-0.347,0.751-0.519,1.121c-0.247,0.546-0.499,1.091-0.739,1.628c-0.281,0.649-0.562,1.292-0.837,1.927
		c-0.229,0.528-0.457,1.053-0.678,1.572c-0.271,0.639-0.525,1.266-0.78,1.894c-0.204,0.501-0.415,1.003-0.605,1.491
		c-0.254,0.635-0.491,1.248-0.727,1.867c-0.177,0.466-0.361,0.934-0.529,1.392c-0.234,0.624-0.448,1.23-0.665,1.839
		c-0.148,0.424-0.307,0.857-0.448,1.27c-0.221,0.635-0.411,1.24-0.609,1.855c-0.12,0.36-0.245,0.732-0.352,1.09
		c-0.208,0.663-0.389,1.3-0.569,1.936c-0.079,0.271-0.171,0.562-0.244,0.827c-0.241,0.887-0.458,1.746-0.644,2.563
		c-1.1,4.823-0.043,6.512,1.489,7.333c0.221,0.118,0.451,0.217,0.681,0.305c0.27,0.104,0.557,0.193,0.867,0.27
		c1.971,0.492,4.134,0.594,6.43,0.701c2.991,0.138,6.088,0.281,8.904,1.354c2.24,0.852,4.015,2.178,5.428,4.05
		c3.323,4.414,4.142,10.506,2.14,15.896c-2.099,5.389-6.757,9.394-12.173,10.482c-0.888,0.178-1.761,0.23-2.631,0.212
		c15.882,15.85,33.881,29.865,53.799,41.558c0.185-0.466,0.375-0.938,0.563-1.413c0.206-0.523,0.411-1.045,0.607-1.561
		c0.208-0.548,0.413-1.104,0.618-1.66c0.204-0.553,0.399-1.104,0.587-1.646c0.188-0.527,0.369-1.062,0.548-1.591
		c0.18-0.53,0.354-1.06,0.516-1.576c0.192-0.596,0.366-1.184,0.538-1.778c0.126-0.419,0.26-0.851,0.374-1.256
		c0.27-0.974,0.52-1.938,0.737-2.877c0-0.016,0.005-0.034,0.01-0.047c0.785-3.445,0.467-5.292-0.332-6.365
		c-0.482-0.643-1.143-1.011-1.844-1.277c-0.264-0.101-0.556-0.191-0.863-0.268c-1.97-0.492-4.133-0.593-6.432-0.698
		c-2.992-0.14-6.087-0.285-8.898-1.353c-2.247-0.855-4.02-2.182-5.43-4.055c-3.324-4.411-4.143-10.502-2.141-15.895
		c2.096-5.382,6.757-9.391,12.175-10.483c2.297-0.461,4.502-0.272,6.75,0.583c2.808,1.066,5.219,3.017,7.548,4.904
		c1.789,1.447,3.473,2.809,5.276,3.752C173.518,598.343,175.688,598.946,178.802,593.284z"/>
	<path fill="#002146" d="M355.2,632.301c-1.941-0.654-3.814-1.322-5.603-1.992c-0.222-0.085-0.472-0.162-0.691-0.245
		c-0.362-0.139-0.688-0.279-1.048-0.417c-0.326-0.126-0.639-0.252-0.96-0.381c-0.769-0.307-1.521-0.609-2.251-0.916
		c-0.287-0.123-0.56-0.241-0.843-0.362c-0.702-0.303-1.398-0.606-2.063-0.906c-0.365-0.166-0.703-0.332-1.053-0.495
		c-0.543-0.26-1.1-0.516-1.619-0.771c-0.862-0.428-1.689-0.86-2.463-1.283c-3.889-2.137-6.01-4.605-6.37-7.373
		c-19.34,3.118-39.255,3.548-59.204,1.066c-0.065,0.189-0.133,0.38-0.198,0.569c-0.159,0.477-0.328,0.954-0.478,1.432
		c-0.226,0.694-0.429,1.38-0.632,2.067c-0.117,0.397-0.244,0.799-0.358,1.189c-0.298,1.073-0.574,2.135-0.812,3.166
		c-1.099,4.824-0.042,6.513,1.496,7.336c0.215,0.117,0.445,0.216,0.681,0.305c0.266,0.102,0.552,0.19,0.862,0.268
		c1.967,0.489,4.137,0.595,6.427,0.7c3.004,0.141,6.093,0.284,8.908,1.354c2.244,0.854,4.017,2.178,5.427,4.049
		c3.323,4.417,4.143,10.506,2.139,15.897c-1.716,4.412-5.162,7.866-9.324,9.58c-0.919,0.381-1.868,0.707-2.849,0.902
		c-2.297,0.463-4.507,0.272-6.751-0.581c-2.813-1.069-5.217-3.017-7.554-4.904c-1.779-1.446-3.468-2.811-5.265-3.752
		c-0.283-0.148-0.557-0.271-0.823-0.374c-1.869-0.711-3.979-0.687-6.704,4.265c-0.509,0.935-1.009,1.911-1.501,2.917
		c-0.169,0.352-0.331,0.722-0.503,1.078c-0.315,0.672-0.627,1.339-0.933,2.031c-0.191,0.43-0.375,0.878-0.56,1.319
		c-0.267,0.632-0.542,1.261-0.799,1.903c-0.19,0.479-0.373,0.957-0.564,1.435c-0.246,0.62-0.485,1.241-0.718,1.862
		c-0.184,0.486-0.356,0.97-0.53,1.455c-0.01,0.026-0.019,0.049-0.028,0.073c21.97,3.948,44.017,5.088,65.703,3.618
		c-0.483-0.64-0.897-1.322-1.27-2.023c-1.499-2.797-2.133-6.03-1.87-9.259c0.014-0.156,0.002-0.313,0.02-0.472
		c0.008-0.041,0.021-0.077,0.02-0.122c0.163-1.355,0.471-2.708,0.961-4.015c0.455-1.18,1.059-2.275,1.746-3.305
		c2.443-3.682,6.195-6.324,10.427-7.18c2.297-0.461,4.503-0.272,6.745,0.58c2.818,1.072,5.228,3.021,7.558,4.908
		c1.785,1.444,3.471,2.808,5.269,3.748c0.281,0.149,0.556,0.272,0.822,0.373c1.872,0.713,3.98,0.69,6.702-4.263
		c0.403-0.734,0.816-1.52,1.224-2.343c0.118-0.249,0.245-0.524,0.367-0.78c0.29-0.594,0.574-1.19,0.859-1.825
		c0.158-0.338,0.311-0.699,0.465-1.048c0.256-0.591,0.516-1.173,0.777-1.791c0.167-0.403,0.335-0.832,0.506-1.247
		c0.24-0.599,0.486-1.194,0.727-1.816c0.176-0.454,0.352-0.926,0.527-1.391c0.237-0.62,0.468-1.235,0.702-1.877
		c0.179-0.495,0.356-1.008,0.541-1.517c0.223-0.639,0.448-1.276,0.671-1.935c0.182-0.535,0.361-1.078,0.542-1.625
		c0.212-0.658,0.433-1.322,0.651-1.995c0.175-0.565,0.355-1.136,0.529-1.709c0.121-0.391,0.238-0.786,0.356-1.183
		c-1.749-0.527-3.438-1.071-5.105-1.627C355.901,632.537,355.555,632.419,355.2,632.301z"/>
	<path fill="#002146" d="M181.16,174.929c-1.107,2.104-2.647,4.011-4.138,5.853c-3.029,3.745-5.647,6.982-4.764,11.368
		c0.747,3.708,3.266,6.979,6.727,8.848c0.075,0.04,0.155,0.066,0.232,0.109c0.423,0.22,0.853,0.425,1.303,0.602
		c2.289,0.847,4.725,1.034,7.031,0.645c1.254-0.213,2.463-0.604,3.592-1.165c0.656-0.33,1.293-0.694,1.882-1.139
		c2.237-1.679,3.152-3.937,3.578-6.565c0.256-1.578,0.336-3.291,0.423-5.098c0.106-2.365,0.224-4.81,0.795-7.119
		c1.314-5.28,5.404-7.18,12.143-5.638c0.842,0.192,1.725,0.416,2.633,0.663c0.435,0.116,0.892,0.258,1.334,0.389
		c0.5,0.145,0.988,0.278,1.503,0.438c0.506,0.156,1.03,0.333,1.55,0.504c0.492,0.157,0.973,0.309,1.474,0.481
		c0.522,0.18,1.064,0.376,1.6,0.566c0.534,0.189,1.064,0.376,1.61,0.577c0.521,0.192,1.051,0.4,1.582,0.603
		c0.59,0.228,1.181,0.453,1.786,0.695c0.512,0.201,1.033,0.415,1.551,0.626c0.646,0.266,1.293,0.528,1.951,0.809
		c0.518,0.216,1.044,0.445,1.571,0.674c0.667,0.287,1.337,0.575,2.014,0.879c0.548,0.242,1.099,0.494,1.655,0.746
		c0.391,0.179,0.772,0.345,1.167,0.526c0.102-0.223,0.205-0.436,0.309-0.664c0.171-0.368,0.343-0.749,0.516-1.135
		c0.252-0.558,0.505-1.131,0.761-1.712c0.193-0.432,0.378-0.869,0.573-1.31c0.248-0.57,0.492-1.154,0.743-1.741
		c0.195-0.47,0.392-0.939,0.59-1.416c0.242-0.588,0.479-1.185,0.712-1.782c0.195-0.487,0.391-0.979,0.583-1.471
		c0.232-0.605,0.455-1.21,0.683-1.82c0.184-0.497,0.369-0.992,0.546-1.491c0.224-0.626,0.429-1.249,0.642-1.873
		c0.162-0.477,0.328-0.959,0.481-1.432c0.225-0.695,0.429-1.381,0.631-2.072c0.115-0.396,0.249-0.795,0.354-1.187
		c0.303-1.072,0.578-2.134,0.813-3.17c0.471-2.065,0.546-3.555,0.363-4.651c-0.315-1.822-1.364-2.542-2.531-2.986
		c-0.27-0.103-0.559-0.19-0.867-0.268c-1.97-0.491-4.135-0.592-6.43-0.699c-2.99-0.139-6.089-0.286-8.902-1.355
		c-0.71-0.271-1.356-0.606-1.973-0.973l-43.242,16.514C182.549,168.712,182.875,171.657,181.16,174.929z"/>
	<path fill="#002146" d="M241.701,149.185c2.499,0.618,4.038,1.802,4.959,3.209c2.043,3.095,1.061,7.253,0.679,8.927
		c-0.247,1.077-0.53,2.179-0.843,3.292c-0.096,0.348-0.213,0.701-0.315,1.053c-0.227,0.776-0.455,1.55-0.703,2.333
		c-0.139,0.423-0.286,0.843-0.429,1.266c-0.238,0.718-0.479,1.433-0.734,2.148c-0.162,0.463-0.336,0.919-0.505,1.377
		c-0.249,0.675-0.5,1.348-0.756,2.021c-0.188,0.479-0.376,0.951-0.562,1.427c-0.251,0.638-0.509,1.268-0.765,1.898
		c-0.192,0.477-0.394,0.944-0.587,1.415c-0.254,0.609-0.509,1.207-0.763,1.798c-0.207,0.47-0.405,0.927-0.607,1.387
		c-0.241,0.553-0.485,1.088-0.728,1.62c-0.203,0.471-0.415,0.928-0.62,1.377c-0.087,0.184-0.173,0.388-0.259,0.564
		c0.414,0.189,0.827,0.384,1.234,0.571c0.459,0.21,0.918,0.417,1.369,0.618c0.8,0.357,1.596,0.703,2.379,1.042
		c0.353,0.151,0.704,0.303,1.047,0.45c0.862,0.364,1.708,0.711,2.542,1.052c0.279,0.109,0.562,0.229,0.839,0.337
		c0.874,0.35,1.726,0.681,2.572,1.001c0.234,0.089,0.481,0.184,0.719,0.273c0.855,0.32,1.687,0.616,2.506,0.903
		c0.221,0.076,0.438,0.155,0.656,0.231c0.817,0.282,1.617,0.541,2.399,0.792c0.2,0.062,0.402,0.132,0.601,0.191
		c0.779,0.245,1.522,0.46,2.267,0.669c0.181,0.054,0.369,0.11,0.548,0.159c0.85,0.232,1.673,0.44,2.463,0.621
		c0.042,0.014,0.087,0.024,0.133,0.035c4.225,0.965,6.165,0.369,7.167-1.188c0.336-0.516,0.566-1.139,0.741-1.847
		c0.49-1.969,0.587-4.14,0.697-6.429c0.231-4.987,0.498-10.639,5.409-14.333c4.408-3.326,10.499-4.143,15.89-2.139
		c5.387,2.097,9.395,6.754,10.484,12.171c1.211,6.022-2.346,10.423-5.486,14.305c-0.999,1.232-1.956,2.421-2.766,3.629
		c10.886-0.161,21.858,0.53,32.832,2.104c0.109-0.256,0.216-0.517,0.324-0.772c0.179-0.424,0.353-0.848,0.537-1.264
		c0.326-0.743,0.668-1.466,1.012-2.184c0.157-0.343,0.311-0.687,0.473-1.021c0.509-1.037,1.027-2.048,1.557-3.014
		c1.011-1.839,3.825-7.053,9.057-6.385c1.192,0.563,2.355,1.204,3.49,1.843c3.816,2.144,7.119,3.997,10.889,2.516
		c3.65-1.426,6.41-4.852,7.211-8.933c0.731-4.073-0.59-8.295-3.457-11.008c-2.965-2.802-6.699-2.325-11.03-1.781
		c-0.347,0.045-0.697,0.088-1.047,0.131c-3.869-3.044-2.584-8.529-2.132-10.51c0.246-1.072,0.529-2.17,0.842-3.278
		c0.098-0.359,0.213-0.724,0.324-1.086c0.217-0.758,0.439-1.516,0.687-2.281c0.142-0.44,0.3-0.874,0.445-1.317
		c0.232-0.694,0.462-1.39,0.709-2.084c0.175-0.472,0.346-0.945,0.521-1.414c0.244-0.667,0.488-1.321,0.738-1.978
		c0.184-0.485,0.375-0.96,0.564-1.438c0.02-0.034,0.031-0.067,0.046-0.104c-40.336-7.83-80.996-6.159-119.261,3.788
		c1.476,0.236,3.049,0.364,4.679,0.443C236.949,148.496,239.394,148.612,241.701,149.185z"/>
	<path fill="#002146" d="M408.478,214.532c2.361,0.108,4.805,0.224,7.115,0.799c7.998,1.997,6.189,9.703,5.635,12.134
		c-0.244,1.073-0.527,2.173-0.838,3.282c-0.113,0.395-0.238,0.797-0.36,1.195c-0.211,0.722-0.424,1.443-0.659,2.174
		c-0.148,0.479-0.311,0.952-0.476,1.428c-0.204,0.599-0.405,1.197-0.614,1.796c9.261,6.454,17.899,13.587,25.874,21.305
		c0.027-0.098,0.056-0.194,0.082-0.295c0.488-1.967,0.591-4.135,0.699-6.426c0.233-4.986,0.499-10.638,5.406-14.334
		c4.412-3.325,10.504-4.14,15.895-2.138c5.38,2.094,9.387,6.751,10.479,12.169c1.22,6.026-2.344,10.424-5.479,14.307
		c-1.443,1.782-2.808,3.472-3.753,5.267c-1.355,2.581-1.177,4.738,3.893,7.522c0.74,0.408,1.535,0.821,2.36,1.229
		c0.22,0.109,0.462,0.219,0.689,0.33c0.634,0.305,1.271,0.61,1.951,0.918c0.264,0.122,0.549,0.241,0.825,0.363
		c0.669,0.296,1.345,0.592,2.048,0.888c0.297,0.123,0.614,0.25,0.918,0.376c0.718,0.292,1.435,0.582,2.183,0.873
		c0.326,0.125,0.666,0.252,1,0.378c0.75,0.287,1.512,0.571,2.293,0.854c0.367,0.134,0.747,0.268,1.125,0.4
		c0.76,0.27,1.532,0.541,2.318,0.806c0.435,0.146,0.867,0.288,1.304,0.433c0.753,0.247,1.512,0.499,2.278,0.74
		c0.51,0.163,1.027,0.323,1.545,0.485c0.411,0.127,0.826,0.249,1.241,0.377c0.066-0.233,0.15-0.487,0.223-0.723
		c0.12-0.397,0.245-0.799,0.37-1.207c0.197-0.61,0.389-1.229,0.594-1.862c0.142-0.442,0.288-0.882,0.435-1.328
		c0.211-0.643,0.429-1.287,0.653-1.937c0.153-0.461,0.313-0.909,0.475-1.372c0.229-0.661,0.472-1.327,0.716-1.998
		c0.167-0.462,0.333-0.925,0.509-1.389c0.251-0.681,0.516-1.354,0.786-2.031c0.179-0.451,0.351-0.902,0.531-1.351
		c0.28-0.703,0.577-1.39,0.871-2.08c0.181-0.416,0.352-0.841,0.536-1.249c0.328-0.741,0.666-1.462,1.006-2.183
		c0.161-0.343,0.317-0.692,0.482-1.029c0.51-1.042,1.025-2.053,1.558-3.024c1.201-2.185,4.936-9.152,12.279-5.319
		c0.974,0.508,1.893,1.125,2.795,1.775c-20.801-30.103-47.813-56.194-80.049-76.126c-0.085,0.239-0.176,0.474-0.265,0.711
		c-0.253,0.664-0.513,1.32-0.769,1.986c-0.182,0.466-0.362,0.927-0.547,1.393c-0.279,0.676-0.562,1.345-0.846,2.014
		c-0.188,0.434-0.37,0.87-0.557,1.302c-0.318,0.724-0.651,1.424-0.98,2.127c-0.169,0.354-0.331,0.717-0.497,1.066
		c-0.505,1.035-1.024,2.043-1.556,3.006c-1.2,2.187-4.976,9.159-12.273,5.325c-2.107-1.109-4.01-2.646-5.85-4.135
		c-3.766-3.044-7.439-5.56-11.381-4.771c-4.236,0.857-7.9,4.025-9.551,8.271c-1.58,4.245-0.949,9.046,1.65,12.499
		C399.223,213.739,403.64,214.303,408.478,214.532z"/>
	<path fill="#002146" d="M108.506,598.492c4.242-0.85,7.899-4.02,9.557-8.268c1.572-4.244,0.946-9.044-1.656-12.504
		c-2.416-3.207-6.837-3.768-11.669-3.995c-2.363-0.109-4.811-0.228-7.117-0.799c-0.158-0.04-0.291-0.095-0.444-0.14
		c-0.325-0.096-0.652-0.187-0.943-0.301c-6.384-2.502-4.77-9.417-4.251-11.696c0.247-1.076,0.533-2.176,0.84-3.288
		c0.11-0.394,0.239-0.79,0.359-1.182c0.213-0.729,0.425-1.453,0.658-2.188c0.157-0.478,0.326-0.954,0.486-1.435
		c0.221-0.659,0.441-1.313,0.673-1.969c0.177-0.512,0.368-1.016,0.558-1.524c0.229-0.629,0.463-1.254,0.701-1.876
		c0.196-0.509,0.396-1.01,0.591-1.513c0.248-0.614,0.494-1.224,0.741-1.827c0.199-0.49,0.401-0.965,0.601-1.444
		c0.256-0.612,0.509-1.21,0.766-1.803c0.193-0.447,0.386-0.883,0.576-1.318c0.271-0.606,0.531-1.196,0.795-1.776
		c0.174-0.386,0.343-0.764,0.512-1.138c0.104-0.229,0.215-0.477,0.318-0.701c-0.377-0.173-0.756-0.347-1.132-0.519
		c-0.533-0.243-1.069-0.487-1.6-0.724c-0.63-0.28-1.253-0.553-1.875-0.823c-0.55-0.234-1.104-0.476-1.65-0.705
		c-0.58-0.244-1.15-0.479-1.723-0.715c-0.562-0.229-1.125-0.461-1.678-0.681c-0.536-0.212-1.061-0.414-1.585-0.616
		c-0.563-0.216-1.13-0.436-1.68-0.641c-0.504-0.187-0.993-0.359-1.486-0.534c-0.541-0.193-1.087-0.391-1.614-0.571
		c-0.489-0.17-0.958-0.315-1.436-0.477c-0.502-0.162-1.016-0.336-1.505-0.486c-0.501-0.157-0.976-0.288-1.459-0.429
		c-0.434-0.128-0.878-0.261-1.298-0.378c-0.881-0.238-1.733-0.457-2.55-0.643c-5.619-1.286-7.226,0.285-7.909,3.036
		c-0.491,1.971-0.593,4.133-0.698,6.427c-0.192,4.146-0.449,8.744-3.343,12.303c10.188,17.16,22.218,33.272,36.05,47.917
		C103.447,598.093,105.915,599.012,108.506,598.492z"/>
	<path fill="#002146" d="M543.282,504.874c-0.842-0.191-1.732-0.415-2.645-0.664c-0.409-0.108-0.838-0.239-1.255-0.365
		c-0.531-0.153-1.058-0.296-1.609-0.469c-0.455-0.141-0.932-0.302-1.397-0.454c-0.55-0.18-1.087-0.349-1.647-0.543
		c-0.47-0.157-0.953-0.335-1.434-0.506c-0.594-0.21-1.183-0.419-1.793-0.644c-0.463-0.173-0.93-0.354-1.401-0.532
		c-0.657-0.252-1.314-0.506-1.986-0.771c-0.447-0.177-0.908-0.368-1.374-0.559c-0.702-0.283-1.404-0.574-2.123-0.878
		c-0.456-0.19-0.915-0.391-1.382-0.592c-0.738-0.317-1.473-0.638-2.223-0.974c-0.468-0.208-0.937-0.423-1.402-0.633
		c-0.436-0.197-0.871-0.388-1.308-0.592c-0.103,0.224-0.204,0.434-0.305,0.66c-0.171,0.373-0.349,0.758-0.518,1.146
		c-0.256,0.557-0.509,1.128-0.764,1.708c-0.192,0.433-0.38,0.872-0.571,1.313c-0.249,0.57-0.497,1.152-0.741,1.736
		c-0.199,0.472-0.396,0.941-0.593,1.424c-0.238,0.581-0.477,1.173-0.71,1.769c-0.198,0.493-0.395,0.985-0.585,1.484
		c-0.233,0.602-0.457,1.201-0.684,1.804c-0.181,0.504-0.371,1.003-0.548,1.504c-0.22,0.624-0.429,1.245-0.643,1.865
		c-0.157,0.48-0.328,0.962-0.479,1.44c-0.226,0.689-0.429,1.369-0.627,2.056c-0.122,0.4-0.247,0.803-0.36,1.202
		c-0.302,1.072-0.574,2.132-0.811,3.164c-1.259,5.514,0.302,6.932,2.173,7.643c0.267,0.101,0.555,0.191,0.859,0.267
		c1.97,0.491,4.135,0.589,6.428,0.696c2.995,0.14,6.096,0.287,8.908,1.356c2.238,0.852,4.02,2.177,5.427,4.049
		c1.212,1.614,2.087,3.453,2.611,5.394c5.688-10.493,10.807-21.433,15.164-32.887c0.258-0.682,0.466-1.364,0.719-2.044
		c-0.585,0.304-1.208,0.561-1.918,0.712C547.967,505.547,545.809,505.453,543.282,504.874z"/>
	<path fill="#002146" d="M96.334,231.288c0.746,0.237,1.494,0.478,2.272,0.744c0.269,0.096,0.555,0.198,0.831,0.296
		c0.793,0.276,1.594,0.564,2.414,0.868c0.287,0.108,0.586,0.223,0.876,0.333c0.823,0.313,1.657,0.633,2.506,0.971
		c0.309,0.123,0.625,0.254,0.936,0.38c0.846,0.345,1.7,0.696,2.566,1.063c0.344,0.146,0.691,0.297,1.036,0.444
		c0.826,0.357,1.659,0.719,2.5,1.093c0.437,0.195,0.874,0.398,1.314,0.596c0.446,0.201,0.886,0.396,1.34,0.607
		c0.105-0.223,0.204-0.436,0.306-0.661c0.17-0.372,0.345-0.758,0.519-1.144c0.252-0.56,0.507-1.127,0.762-1.708
		c0.191-0.433,0.382-0.87,0.577-1.313c0.245-0.572,0.491-1.155,0.737-1.739c0.199-0.47,0.394-0.941,0.591-1.422
		c0.241-0.581,0.476-1.173,0.712-1.767c0.195-0.494,0.393-0.986,0.584-1.486c0.231-0.599,0.456-1.203,0.677-1.807
		c0.187-0.499,0.375-1.001,0.554-1.501c0.221-0.623,0.427-1.245,0.638-1.866c0.164-0.479,0.332-0.961,0.485-1.437
		c0.224-0.692,0.425-1.376,0.625-2.055c0.118-0.4,0.248-0.807,0.36-1.206c0.302-1.071,0.577-2.131,0.812-3.163
		c0.157-0.688,0.27-1.315,0.346-1.881c0.517-3.978-0.883-5.141-2.521-5.764c-0.267-0.101-0.552-0.19-0.862-0.267
		c-0.493-0.122-1.033-0.169-1.549-0.247c-8.706,7.592-16.953,15.771-24.682,24.502c0.307,0.092,0.605,0.176,0.92,0.272
		C95.785,231.107,96.064,231.203,96.334,231.288z"/>
	<path fill="#002146" d="M127.319,215.196c-0.245,1.074-0.529,2.178-0.841,3.289c-0.099,0.354-0.216,0.719-0.32,1.076
		c-0.225,0.765-0.453,1.526-0.699,2.302c-0.141,0.438-0.292,0.869-0.438,1.3c-0.239,0.709-0.473,1.415-0.724,2.119
		c-0.167,0.465-0.34,0.927-0.509,1.387c-0.247,0.672-0.497,1.343-0.751,2.011c-0.187,0.479-0.373,0.95-0.565,1.427
		c-0.251,0.64-0.503,1.271-0.758,1.896c-0.199,0.484-0.397,0.954-0.596,1.427c-0.255,0.605-0.509,1.202-0.76,1.79
		c-0.205,0.468-0.403,0.925-0.603,1.385c-0.245,0.554-0.486,1.096-0.729,1.629c-0.207,0.466-0.413,0.92-0.618,1.368
		c-0.086,0.184-0.175,0.39-0.261,0.571c0.192,0.088,0.383,0.177,0.572,0.265c1.81,0.828,3.595,1.624,5.334,2.364
		c0.211,0.09,0.414,0.172,0.626,0.259c1.581,0.664,3.127,1.284,4.639,1.868c0.38,0.146,0.769,0.301,1.14,0.441
		c0.379,0.144,0.742,0.271,1.114,0.407c0.745,0.275,1.496,0.55,2.218,0.799c0.265,0.092,0.514,0.171,0.774,0.26
		c0.781,0.262,1.559,0.523,2.305,0.756c0.311,0.099,0.603,0.177,0.912,0.271c0.659,0.198,1.324,0.399,1.954,0.574
		c0.928,0.255,1.826,0.479,2.681,0.677c5.638,1.289,7.207-0.204,7.911-3.036c0.491-1.97,0.592-4.135,0.699-6.43
		c0.234-4.986,0.5-10.637,5.407-14.33c4.41-3.321,10.5-4.141,15.896-2.14c0.673,0.26,1.324,0.563,1.95,0.902
		c3.891,2.1,6.831,5.608,8.115,9.676c13.174-8.591,27.258-15.688,41.975-21.153c0.224-0.947,0.471-1.905,0.74-2.88
		c0.111-0.396,0.241-0.796,0.362-1.193c0.208-0.724,0.422-1.445,0.655-2.178c0.158-0.479,0.328-0.958,0.484-1.44
		c0.222-0.655,0.444-1.309,0.675-1.964c0.177-0.514,0.369-1.017,0.558-1.522c0.23-0.632,0.464-1.256,0.701-1.879
		c0.197-0.509,0.396-1.007,0.591-1.509c0.249-0.617,0.493-1.226,0.741-1.831c0.199-0.489,0.401-0.966,0.602-1.446
		c0.254-0.607,0.508-1.204,0.764-1.798c0.194-0.448,0.387-0.887,0.578-1.323c0.268-0.602,0.525-1.185,0.786-1.766
		c0.179-0.39,0.353-0.774,0.523-1.157c0.103-0.225,0.212-0.466,0.313-0.686c-0.397-0.187-0.798-0.373-1.198-0.553
		c-0.471-0.216-0.946-0.429-1.412-0.639c-0.833-0.369-1.656-0.729-2.469-1.08c-0.313-0.135-0.627-0.269-0.935-0.403
		c-0.92-0.387-1.824-0.759-2.711-1.118c-0.222-0.09-0.449-0.185-0.67-0.27c-0.919-0.37-1.82-0.718-2.709-1.056
		c-0.2-0.074-0.404-0.154-0.601-0.229c-0.87-0.323-1.714-0.625-2.545-0.915c-0.209-0.075-0.427-0.154-0.636-0.225
		c-0.794-0.274-1.562-0.523-2.322-0.767c-0.225-0.072-0.459-0.152-0.68-0.219c-0.756-0.235-1.475-0.443-2.192-0.645
		c-0.201-0.055-0.41-0.124-0.608-0.176c-0.894-0.245-1.756-0.464-2.581-0.652c-5.638-1.288-7.208,0.207-7.91,3.037
		c-0.491,1.97-0.593,4.134-0.701,6.431c-0.23,4.985-0.493,10.637-5.404,14.331c-4.27,3.215-10.108,4.063-15.37,2.299
		c-0.174-0.06-0.35-0.097-0.524-0.158h-0.002l-0.011-0.005l-0.014-0.005c-4.618-1.803-8.223-5.516-9.83-9.977
		c-0.259-0.711-0.474-1.44-0.626-2.188c-1.212-6.02,2.344-10.417,5.484-14.3c1.446-1.788,2.81-3.473,3.752-5.271
		c0.169-0.323,0.314-0.638,0.431-0.949c0.574-1.556,0.383-3.001-1.386-4.589c-0.02-0.018-0.049-0.036-0.069-0.054
		c-19.4,9.646-37.664,21.604-54.344,35.674c1.03,0.358,1.887,0.811,2.563,1.35C129.048,207.766,127.773,213.218,127.319,215.196z"/>
	<path fill="#002146" d="M558.653,388.519c-0.252,0.604-0.509,1.209-0.759,1.821c-0.201,0.492-0.391,0.991-0.589,1.487
		c-0.23,0.598-0.466,1.199-0.688,1.802c-0.191,0.5-0.37,0.999-0.551,1.499c-0.222,0.601-0.436,1.2-0.646,1.793
		c-0.173,0.489-0.338,0.972-0.5,1.455c-0.208,0.6-0.408,1.199-0.603,1.791c-0.15,0.461-0.302,0.913-0.445,1.364
		c-0.196,0.603-0.386,1.194-0.565,1.782c-0.13,0.401-0.253,0.808-0.372,1.199c-0.076,0.235-0.142,0.462-0.213,0.696
		c0.259,0.075,0.493,0.16,0.751,0.237c1.854,0.571,3.684,1.148,5.437,1.741c0.355,0.12,0.701,0.245,1.053,0.368
		c1.48,0.504,2.905,1.017,4.295,1.537c0.302,0.113,0.636,0.221,0.934,0.334c0.211,0.08,0.4,0.163,0.608,0.243
		c0.23,0.088,0.444,0.175,0.671,0.264c0.714,0.279,1.444,0.563,2.127,0.842c0.019-11.461-0.699-22.854-2.12-34.123
		c-1.268,0.337-2.673,1.517-4.3,4.478c-0.507,0.928-1.01,1.902-1.496,2.903c-0.18,0.372-0.356,0.762-0.531,1.141
		c-0.306,0.639-0.606,1.285-0.896,1.951C559.048,387.583,558.856,388.055,558.653,388.519z"/>
	<path fill="#002146" d="M290.45,199.403c1.106-2.107,2.646-4.014,4.134-5.851c3.032-3.747,5.654-6.986,4.766-11.375
		c-0.854-4.244-4.022-7.907-8.267-9.56c-4.243-1.576-9.042-0.944-12.499,1.661c-3.581,2.688-3.772,6.849-4,11.664
		c-0.112,2.362-0.227,4.811-0.801,7.116c-0.159,0.661-0.374,1.269-0.619,1.822c-1.003,2.216-2.692,3.584-5.058,4.102
		c-0.218,0.048-0.476,0.05-0.705,0.083c-0.391,0.057-0.774,0.129-1.198,0.144c-0.348,0.009-0.741-0.032-1.114-0.051
		c-0.345-0.017-0.669,0-1.04-0.045c-0.17-0.019-0.361-0.066-0.538-0.093c-0.601-0.085-1.211-0.176-1.868-0.324
		c-0.851-0.194-1.734-0.414-2.651-0.666c-0.382-0.104-0.793-0.23-1.192-0.345c-0.551-0.159-1.098-0.31-1.665-0.489
		c-0.448-0.136-0.912-0.296-1.366-0.44c-0.552-0.182-1.111-0.357-1.681-0.553c-0.462-0.158-0.947-0.333-1.419-0.501
		c-0.597-0.213-1.187-0.422-1.803-0.649c-0.461-0.172-0.933-0.355-1.401-0.534c-0.655-0.248-1.311-0.503-1.98-0.768
		c-0.459-0.182-0.923-0.372-1.38-0.559c-0.698-0.286-1.4-0.573-2.113-0.875c-0.466-0.194-0.942-0.402-1.416-0.606
		c-0.723-0.313-1.448-0.63-2.185-0.956c-0.483-0.215-0.973-0.437-1.463-0.662c-0.423-0.193-0.836-0.374-1.258-0.57
		c-0.176,0.375-0.349,0.755-0.52,1.123c-0.247,0.546-0.497,1.088-0.737,1.627c-0.283,0.65-0.563,1.29-0.841,1.93
		c-0.226,0.524-0.456,1.052-0.676,1.568c-0.271,0.643-0.525,1.268-0.781,1.896c-0.204,0.5-0.414,1.001-0.604,1.49
		c-0.253,0.631-0.492,1.248-0.726,1.865c-0.178,0.466-0.362,0.935-0.529,1.393c-0.235,0.626-0.448,1.23-0.665,1.835
		c-0.149,0.428-0.307,0.86-0.448,1.274c-0.218,0.63-0.411,1.24-0.606,1.848c-0.122,0.363-0.249,0.74-0.357,1.099
		c-0.207,0.659-0.386,1.293-0.564,1.923c-0.076,0.25-0.154,0.512-0.227,0.763c19.823-6.911,40.718-10.901,62.006-11.644
		C290.417,199.476,290.431,199.44,290.45,199.403z"/>
	<path fill="#002146" d="M62.532,457.706c-0.906-1.204-2.096-2.034-3.481-2.619c-2.307-0.965-5.165-1.238-8.182-1.379
		c-2.368-0.109-4.813-0.226-7.123-0.797c-2.996-0.751-4.614-2.304-5.438-4.083c-1.218-2.621-0.708-5.717-0.333-7.45
		c0.051-0.223,0.095-0.435,0.136-0.605c0.008-0.037,0.019-0.074,0.028-0.112c0.237-1.038,0.511-2.096,0.812-3.167
		c0.11-0.4,0.241-0.808,0.361-1.213c0.209-0.718,0.421-1.433,0.655-2.156c0.152-0.475,0.318-0.953,0.479-1.431
		c0.22-0.663,0.444-1.323,0.679-1.981c0.179-0.504,0.366-1.004,0.551-1.509c0.235-0.628,0.465-1.255,0.705-1.878
		c0.2-0.52,0.402-1.031,0.607-1.545c0.24-0.597,0.476-1.192,0.717-1.782c0.21-0.511,0.417-1.009,0.629-1.512
		c0.242-0.577,0.485-1.15,0.729-1.712c0.209-0.487,0.416-0.96,0.625-1.433c0.24-0.546,0.477-1.077,0.714-1.602
		c0.21-0.471,0.416-0.926,0.624-1.375c0.085-0.188,0.175-0.388,0.261-0.568c-0.408-0.191-0.817-0.38-1.221-0.564
		c-0.464-0.213-0.928-0.424-1.387-0.627c-0.788-0.354-1.57-0.694-2.344-1.028c-0.365-0.158-0.731-0.315-1.095-0.469
		c-0.82-0.35-1.63-0.683-2.435-1.011c-0.322-0.127-0.649-0.264-0.969-0.393c-0.795-0.313-1.57-0.614-2.344-0.908
		c-0.323-0.123-0.651-0.25-0.967-0.369c-0.734-0.272-1.445-0.526-2.155-0.778c-0.336-0.117-0.68-0.242-1.01-0.358
		c-0.659-0.224-1.29-0.428-1.923-0.631c-0.354-0.116-0.726-0.24-1.079-0.353c-0.575-0.175-1.12-0.331-1.674-0.49
		c-0.155,20.548,2.079,40.88,6.471,60.65c1.26-0.026,2.668,0.275,4.251,1.106c2.107,1.107,4.012,2.646,5.854,4.136
		c0.587,0.475,1.174,0.929,1.756,1.368c3.157,2.367,6.289,4.065,9.613,3.398c4.245-0.854,7.908-4.021,9.562-8.266
		C65.769,465.963,65.135,461.164,62.532,457.706z"/>
	<path fill="#002146" d="M29.318,404.894c0.465,0.145,0.953,0.31,1.429,0.465v-0.001c0.526,0.171,1.045,0.334,1.585,0.52
		c0.535,0.183,1.088,0.386,1.637,0.581c0.516,0.184,1.025,0.362,1.554,0.554c0.567,0.215,1.149,0.438,1.728,0.66
		c0.534,0.208,1.065,0.41,1.609,0.625c0.579,0.231,1.171,0.473,1.76,0.716c0.574,0.234,1.142,0.468,1.72,0.712
		c0.579,0.243,1.162,0.498,1.745,0.747c0.617,0.268,1.236,0.539,1.862,0.814c0.555,0.248,1.115,0.503,1.674,0.758
		c0.389,0.176,0.772,0.345,1.163,0.525c0.102-0.221,0.201-0.429,0.303-0.651c0.171-0.38,0.346-0.766,0.521-1.154
		c0.251-0.557,0.506-1.123,0.76-1.702c0.192-0.435,0.383-0.874,0.578-1.318c0.244-0.567,0.491-1.148,0.735-1.733
		c0.2-0.469,0.396-0.945,0.593-1.428c0.24-0.579,0.476-1.168,0.711-1.761c0.195-0.495,0.394-0.99,0.585-1.49
		c0.231-0.598,0.456-1.203,0.679-1.808c0.185-0.499,0.374-0.998,0.553-1.5c0.221-0.62,0.431-1.247,0.64-1.867
		c0.165-0.48,0.33-0.958,0.483-1.434c0.224-0.695,0.426-1.377,0.627-2.067c0.119-0.397,0.248-0.798,0.356-1.191
		c0.303-1.073,0.578-2.133,0.813-3.165c1.258-5.514-0.3-6.93-2.173-7.643c-0.268-0.101-0.555-0.189-0.864-0.267
		c-1.968-0.49-4.136-0.595-6.429-0.699c-2.994-0.139-6.088-0.287-8.902-1.358c-2.244-0.854-4.021-2.176-5.427-4.048
		c-2.323-3.085-3.394-6.991-3.161-10.9c-2.386,13.598-3.715,27.215-4.001,40.763c0.26,0.073,0.543,0.16,0.812,0.239
		C28.151,404.55,28.72,404.708,29.318,404.894z"/>
	<path fill="#002146" d="M43.96,347.905c2.296-0.464,4.503-0.271,6.746,0.581c2.813,1.071,5.225,3.021,7.554,4.904
		c1.788,1.445,3.473,2.813,5.27,3.753c0.279,0.148,0.553,0.272,0.819,0.374c1.873,0.712,3.98,0.688,6.705-4.267
		c0.511-0.927,1.008-1.901,1.495-2.903c0.183-0.373,0.354-0.759,0.533-1.137c0.303-0.647,0.606-1.288,0.898-1.952
		c0.202-0.459,0.397-0.932,0.593-1.397c0.254-0.605,0.514-1.205,0.763-1.819c0.199-0.493,0.39-0.991,0.584-1.49
		c0.235-0.6,0.469-1.195,0.694-1.801c0.188-0.498,0.368-0.997,0.55-1.497c0.218-0.602,0.436-1.201,0.643-1.794
		c0.172-0.491,0.34-0.973,0.503-1.457c0.205-0.6,0.407-1.197,0.604-1.788c0.148-0.459,0.297-0.914,0.443-1.364
		c0.195-0.603,0.382-1.197,0.565-1.782c0.126-0.404,0.252-0.809,0.373-1.201c0.073-0.236,0.14-0.459,0.209-0.695
		c-1.794-0.543-3.53-1.101-5.23-1.663c-0.273-0.089-0.542-0.18-0.809-0.27c-2.069-0.695-4.057-1.403-5.955-2.117
		c-0.15-0.059-0.32-0.113-0.471-0.169c-0.247-0.095-0.471-0.189-0.715-0.283c-0.586-0.226-1.159-0.453-1.725-0.682
		c-0.543-0.22-1.085-0.438-1.608-0.656c-0.514-0.218-1.006-0.43-1.502-0.648c-0.511-0.217-1.027-0.438-1.514-0.663
		c-0.537-0.243-1.042-0.483-1.551-0.729c-0.395-0.19-0.809-0.378-1.189-0.565c-0.873-0.437-1.71-0.87-2.495-1.3
		c-3.787-2.081-5.904-4.477-6.346-7.156c-0.266-1.606,0.075-3.314,1.018-5.123c1.108-2.107,2.649-4.008,4.137-5.851
		c1.895-2.34,3.628-4.484,4.448-6.834c0.493-1.409,0.652-2.894,0.319-4.538c-0.341-1.703-1.068-3.301-2.073-4.722
		c-4.768,9.188-9.109,18.698-12.876,28.602c-5.684,14.945-9.871,30.087-12.792,45.277c0.075-0.231,0.125-0.469,0.209-0.693
		C33.878,353.002,38.541,348.998,43.96,347.905z"/>
	<path fill="#002146" d="M516.381,559.784c-2.813-1.071-5.225-3.016-7.555-4.902c-1.785-1.447-3.473-2.811-5.271-3.75
		c-0.284-0.15-0.553-0.273-0.819-0.375c-1.874-0.713-3.979-0.686-6.702,4.267c-0.021,0.026-0.035,0.063-0.052,0.098
		c-0.491,0.898-0.975,1.835-1.445,2.804c-0.18,0.37-0.357,0.763-0.532,1.144c-0.306,0.641-0.606,1.285-0.896,1.949
		c-0.206,0.455-0.397,0.926-0.599,1.391c-0.254,0.607-0.51,1.211-0.76,1.821c-0.201,0.493-0.392,0.992-0.589,1.487
		c-0.231,0.6-0.466,1.203-0.689,1.804c-0.191,0.5-0.371,1.002-0.551,1.502c-0.222,0.599-0.436,1.196-0.643,1.787
		c-0.175,0.492-0.342,0.978-0.505,1.464c-0.205,0.595-0.406,1.195-0.601,1.784c-0.15,0.458-0.302,0.915-0.447,1.368
		c-0.194,0.601-0.384,1.192-0.563,1.776c-0.132,0.405-0.254,0.811-0.377,1.209c-0.074,0.233-0.139,0.455-0.209,0.688
		c0.234,0.067,0.439,0.142,0.669,0.212c1.926,0.59,3.818,1.189,5.641,1.808c0.191,0.063,0.376,0.13,0.568,0.195
		c1.715,0.584,3.366,1.181,4.963,1.778c0.2,0.076,0.423,0.148,0.625,0.226c0.141,0.053,0.264,0.107,0.404,0.16
		c0.549,0.211,1.072,0.423,1.608,0.637c0.6,0.238,1.214,0.479,1.791,0.721c0.471,0.195,0.915,0.394,1.372,0.589
		c0.013,0.005,0.029,0.012,0.029,0.012c6.748-7.919,13.039-16.296,18.884-25.072c-0.004,0.001-0.006,0.003-0.01,0.003
		C520.83,560.829,518.618,560.634,516.381,559.784z"/>
	<path fill="#002146" d="M441.011,630.64h-0.005c-2.238-0.852-4.016-2.175-5.425-4.052c-3.324-4.409-4.143-10.5-2.144-15.896
		c2.102-5.385,6.76-9.391,12.176-10.479c2.3-0.465,4.503-0.273,6.744,0.58h0.006c2.809,1.067,5.221,3.016,7.552,4.901
		c1.784,1.444,3.471,2.808,5.27,3.753c0.284,0.146,0.552,0.271,0.822,0.375c0.702,0.267,1.435,0.428,2.229,0.268
		c1.308-0.271,2.771-1.439,4.471-4.537c0.511-0.932,1.013-1.906,1.501-2.908c0.175-0.363,0.348-0.748,0.521-1.121
		c0.308-0.646,0.611-1.296,0.902-1.969c0.204-0.454,0.397-0.926,0.6-1.389c0.252-0.607,0.509-1.21,0.759-1.822
		c0.199-0.494,0.391-0.994,0.589-1.489c0.231-0.599,0.467-1.199,0.688-1.801c0.191-0.501,0.373-0.999,0.551-1.502
		c0.224-0.599,0.438-1.195,0.646-1.791c0.173-0.488,0.338-0.97,0.5-1.455c0.207-0.601,0.411-1.202,0.608-1.794
		c0.15-0.455,0.299-0.908,0.44-1.356c0.196-0.607,0.389-1.205,0.569-1.796c0.13-0.397,0.251-0.793,0.365-1.182
		c0.078-0.238,0.144-0.467,0.217-0.704c-1.77-0.537-3.479-1.084-5.151-1.636c-0.332-0.114-0.665-0.223-0.997-0.335
		c-1.985-0.67-3.906-1.354-5.732-2.039c-0.193-0.074-0.404-0.142-0.593-0.213c-0.312-0.119-0.591-0.237-0.899-0.355
		c-0.445-0.172-0.877-0.347-1.316-0.521c-0.656-0.265-1.316-0.526-1.943-0.791c-0.399-0.168-0.781-0.336-1.17-0.503
		c-0.605-0.264-1.211-0.527-1.786-0.787c-0.454-0.204-0.875-0.409-1.307-0.612c-0.472-0.223-0.95-0.443-1.399-0.669
		c-0.865-0.429-1.693-0.855-2.471-1.282c-6.063-3.331-7.848-7.464-5.327-12.282c1.11-2.105,2.647-4.009,4.137-5.85
		c2.809-3.472,5.254-6.507,4.903-10.42c-14.009,17.217-30.517,31.904-48.769,43.725c0.279,0.306,0.551,0.62,0.805,0.958
		c3.32,4.412,4.14,10.501,2.14,15.895c-2.101,5.386-6.76,9.394-12.177,10.48c-2.3,0.464-4.502,0.273-6.75-0.582
		c-2.808-1.067-5.223-3.02-7.549-4.905c-1.783-1.441-3.471-2.805-5.27-3.749c-0.283-0.148-0.553-0.272-0.818-0.373
		c-1.636-0.621-3.447-0.678-5.684,2.589c-0.332,0.488-0.666,1.031-1.021,1.675c-0.406,0.731-0.805,1.518-1.214,2.339
		c-0.157,0.306-0.312,0.642-0.463,0.962c-0.257,0.533-0.511,1.061-0.769,1.625c-0.186,0.405-0.368,0.841-0.555,1.268
		c-0.227,0.519-0.449,1.027-0.676,1.564c-0.192,0.459-0.385,0.938-0.578,1.411c-0.221,0.549-0.441,1.089-0.664,1.653
		c-0.194,0.497-0.384,1.012-0.575,1.523c-0.216,0.576-0.433,1.147-0.651,1.739c-0.192,0.527-0.383,1.068-0.568,1.611
		c-0.217,0.615-0.438,1.23-0.649,1.863c-0.183,0.542-0.366,1.096-0.552,1.646c-0.213,0.657-0.428,1.316-0.644,1.985
		c-0.179,0.563-0.357,1.137-0.532,1.714c-0.123,0.39-0.24,0.781-0.359,1.174c0.232,0.07,0.451,0.147,0.678,0.219
		c1.911,0.582,3.785,1.177,5.584,1.787c0.248,0.084,0.482,0.167,0.727,0.253c1.625,0.553,3.191,1.117,4.703,1.689
		c0.248,0.087,0.52,0.176,0.765,0.271c0.173,0.063,0.333,0.132,0.505,0.198c0.388,0.15,0.759,0.301,1.137,0.451
		c0.766,0.304,1.525,0.601,2.248,0.905c0.285,0.116,0.546,0.235,0.819,0.349c0.767,0.326,1.532,0.651,2.253,0.979
		c0.319,0.143,0.607,0.288,0.922,0.435c0.637,0.296,1.277,0.591,1.877,0.888c0.893,0.443,1.742,0.884,2.546,1.323
		c6.062,3.326,7.849,7.458,5.323,12.28c-1.109,2.105-2.647,4.005-4.136,5.848c-1.129,1.394-2.193,2.717-3.052,4.056
		c22.416-8.101,43.753-19.065,63.363-32.729c-0.95-0.076-1.916-0.131-2.918-0.178C446.917,631.853,443.819,631.708,441.011,630.64z"
		/>
	<path fill="#002146" d="M501.118,587.96c-0.834-0.344-1.681-0.684-2.56-1.026c-0.187-0.07-0.374-0.14-0.564-0.214
		c-0.903-0.345-1.823-0.69-2.768-1.029c-0.201-0.075-0.412-0.147-0.613-0.217c-0.937-0.336-1.886-0.668-2.858-0.997
		c-0.277-0.094-0.56-0.185-0.836-0.278c-0.885-0.295-1.777-0.583-2.689-0.872c-0.436-0.141-0.874-0.274-1.311-0.411
		c-0.451-0.14-0.908-0.276-1.362-0.412c-0.06,0.192-0.122,0.402-0.184,0.599c-0.144,0.473-0.296,0.949-0.448,1.441
		c-0.172,0.551-0.349,1.104-0.532,1.672c-0.157,0.492-0.317,0.982-0.482,1.486c-0.193,0.581-0.394,1.171-0.596,1.763
		c-0.175,0.518-0.352,1.026-0.536,1.548c-0.212,0.601-0.428,1.204-0.647,1.808c-0.19,0.52-0.378,1.038-0.57,1.558
		c-0.233,0.626-0.479,1.248-0.727,1.871c-0.194,0.501-0.388,0.999-0.585,1.494c-0.265,0.65-0.539,1.29-0.813,1.932
		c-0.195,0.464-0.386,0.934-0.59,1.389c-0.311,0.696-0.628,1.37-0.946,2.047c-0.181,0.381-0.352,0.772-0.537,1.144
		c-0.487,1.001-0.983,1.975-1.496,2.908c-0.02,0.033-0.033,0.07-0.053,0.103c-0.749,1.364-2.495,4.591-5.487,5.889
		c-1.79,0.778-4.04,0.865-6.794-0.564c-2.105-1.109-4.01-2.647-5.85-4.138c-0.154-0.12-0.299-0.233-0.45-0.356
		c-3.61-2.876-7.142-5.167-10.92-4.407c-4.244,0.854-7.906,4.023-9.563,8.265c-1.572,4.246-0.941,9.048,1.663,12.506
		c2.411,3.21,6.829,3.772,11.662,3.995c2.274,0.107,4.619,0.236,6.857,0.757c16.343-11.849,31.46-25.519,44.938-40.94
		c-0.061-0.023-0.108-0.047-0.169-0.073C501.514,588.119,501.309,588.039,501.118,587.96z"/>
	<path fill="#002146" d="M108.536,535.293c0.727,0.323,1.445,0.636,2.156,0.943c0.442,0.19,0.884,0.383,1.324,0.571
		c0.723,0.304,1.437,0.597,2.139,0.882c0.426,0.175,0.846,0.348,1.266,0.515c0.695,0.278,1.365,0.533,2.045,0.793
		c0.413,0.157,0.834,0.323,1.243,0.473c0.647,0.245,1.276,0.467,1.9,0.688c0.411,0.143,0.833,0.299,1.239,0.438
		c0.608,0.206,1.192,0.394,1.781,0.583c0.397,0.129,0.799,0.266,1.188,0.389c0.591,0.18,1.155,0.341,1.727,0.504
		c0.343,0.099,0.708,0.213,1.048,0.308c0.886,0.24,1.741,0.455,2.56,0.644c1.813,0.413,3.201,0.537,4.28,0.423
		c-7.714-9.462-14.561-19.555-20.498-30.141c-0.014,0.047-0.028,0.094-0.042,0.141c-0.224,0.773-0.453,1.548-0.701,2.333
		c-0.14,0.422-0.287,0.843-0.43,1.267c-0.238,0.717-0.479,1.431-0.733,2.146c-0.163,0.463-0.335,0.917-0.505,1.378
		c-0.249,0.675-0.5,1.346-0.755,2.02c-0.186,0.475-0.375,0.948-0.56,1.424c-0.251,0.64-0.51,1.271-0.768,1.903
		c-0.19,0.475-0.391,0.938-0.583,1.408c-0.255,0.613-0.511,1.213-0.767,1.808c-0.205,0.465-0.403,0.92-0.603,1.375
		c-0.244,0.561-0.488,1.097-0.733,1.635c-0.202,0.468-0.409,0.916-0.614,1.365c-0.088,0.185-0.174,0.39-0.263,0.571
		c0.401,0.186,0.794,0.369,1.189,0.549C107.555,534.851,108.049,535.077,108.536,535.293z"/>
	<path fill="#002146" d="M391.04,605.998c3.762,3.045,7.434,5.558,11.373,4.768c4.245-0.854,7.908-4.021,9.56-8.266
		c1.577-4.248,0.945-9.048-1.657-12.506c-0.318-0.42-0.678-0.788-1.061-1.123c-7.765,4.84-15.826,9.169-24.135,12.96
		c0.023,0.011,0.043,0.021,0.067,0.032C387.293,602.968,389.196,604.505,391.04,605.998z"/>
	<path fill="#002146" d="M367.155,620.093c0.237-0.635,0.488-1.268,0.735-1.899c0.194-0.495,0.382-0.986,0.579-1.474
		c0.261-0.652,0.537-1.289,0.809-1.933c0.198-0.465,0.393-0.936,0.599-1.396c0.306-0.687,0.616-1.355,0.933-2.027
		c0.185-0.387,0.357-0.787,0.547-1.167c0.509-1.035,1.024-2.048,1.554-3.01c0.052-0.095,0.108-0.2,0.171-0.309
		c-12.461,4.783-25.382,8.393-38.592,10.753c0.111,1.549,1.343,3.079,4.598,4.867c0.729,0.398,1.506,0.805,2.318,1.207
		c0.494,0.245,1.023,0.488,1.541,0.734c0.346,0.16,0.672,0.323,1.028,0.484c0.573,0.264,1.19,0.525,1.798,0.788
		c0.338,0.146,0.665,0.294,1.014,0.44c0.61,0.257,1.258,0.516,1.9,0.771c0.381,0.152,0.753,0.306,1.149,0.461
		c0.617,0.243,1.267,0.482,1.914,0.727c0.45,0.168,0.899,0.34,1.364,0.507c0.619,0.226,1.252,0.448,1.893,0.673
		c0.517,0.182,1.039,0.363,1.576,0.548c0.604,0.206,1.226,0.41,1.853,0.617c0.597,0.193,1.194,0.39,1.8,0.584
		c0.598,0.188,1.198,0.377,1.801,0.562c0.371,0.116,0.75,0.229,1.131,0.347c0.066-0.237,0.15-0.491,0.225-0.73
		c0.119-0.394,0.242-0.791,0.369-1.193c0.193-0.613,0.383-1.229,0.594-1.858c0.141-0.455,0.29-0.906,0.445-1.37
		c0.197-0.612,0.407-1.229,0.619-1.852c0.166-0.492,0.338-0.977,0.513-1.472c0.214-0.622,0.441-1.243,0.669-1.87
		C366.782,621.098,366.962,620.599,367.155,620.093z"/>
	<path fill="#0083D6" d="M309.157,399.742c2.753,2.613,4.479,6.298,4.479,10.395c0,4.691-2.264,8.846-5.746,11.463l7.098,8.392
		l86.969-109.783L309.157,399.742z"/>
	<path fill="#0083D6" d="M299.292,395.792c3.826,0,7.293,1.507,9.863,3.947l92.664-79.418l-120.005,70.695l7.537,8.793
		C291.93,397.328,295.429,395.792,299.292,395.792z"/>
	<path fill="#002146" d="M193.32,499.021l121.667-69.03l-7.156-8.349c-2.388,1.774-5.336,2.838-8.539,2.838
		c-7.923,0-14.345-6.422-14.345-14.344c0-4.06,1.693-7.717,4.403-10.326l-7.536-8.793l-88.36,107.889L193.32,499.021z"/>
</g>
</svg>
